<?xml version="1.0" standalone="no"?><!DOCTYPE svg PUBLIC "-//W3C//DTD SVG 1.1//EN" "http://www.w3.org/Graphics/SVG/1.1/DTD/svg11.dtd"><svg class="icon" width="200px" height="200.00px" viewBox="0 0 1024 1024" version="1.1" xmlns="http://www.w3.org/2000/svg"><path fill="#ccc" d="M464.621946 124.483152c0-26.264177 21.324678-47.589878 47.582715-47.589878 26.258037 0 47.662533 21.324678 47.662533 47.589878v299.552424c0 26.264177-21.404496 47.589878-47.662533 47.589878-26.258037 0-47.582715-21.324678-47.582715-47.589878v-299.552424z"  /><path fill="#333333" d="M813.450656 822.458821c-166.205393 166.205393-436.678524 166.205393-602.936105-0.053212-166.205393-166.205393-166.205393-436.678524 0-602.883917 18.191314-18.191314 47.709605-18.191314 65.900919 0s18.191314 47.709605 0 65.900919c-129.868813 129.875976-129.868813 341.207126 0 471.082079 129.868813 129.868813 341.260337 129.922025 471.129151 0.053212 129.875976-129.875976 129.875976-341.319689 0-471.188502-18.191314-18.191314-18.191314-47.708582 0-65.90092 18.198477-18.191314 47.708582-18.191314 65.907059 0 166.250418 166.259628 166.250418 436.732759-0.001024 602.990341z"  /></svg>
