<?xml version="1.0" encoding="UTF-8"?>
<svg width="623px" height="623px" viewBox="0 0 623 623" version="1.1" xmlns="http://www.w3.org/2000/svg" xmlns:xlink="http://www.w3.org/1999/xlink">
    <!-- Generator: Sketch 47.1 (45422) - http://www.bohemiancoding.com/sketch -->
    <title>chazuo-off</title>
    <desc>Created with Sketch.</desc>
    <defs></defs>
    <g id="Page-1" stroke="none" stroke-width="1" fill="none" fill-rule="evenodd">
        <g id="chazuo-off" fill-rule="nonzero" fill="#3A4157">
            <path d="M57.883387,479.962869 C53.252926,479.962869 48.742193,477.626661 46.152205,473.385057 C37.078549,458.567583 29.212394,442.888486 22.783985,426.821555 C19.964776,419.774045 23.387736,411.774861 30.435245,408.955652 C37.509361,406.136443 45.495242,409.560426 48.301148,416.620215 C54.166739,431.251447 61.333976,445.532708 69.60229,459.04956 C73.562485,465.518902 71.522012,473.975504 65.052671,477.935699 C62.809583,479.318186 60.327042,479.962869 57.883387,479.962869 Z M311.68072,622.309878 C236.003133,622.309878 163.063914,594.820804 106.299073,544.900857 C100.607444,539.88154 100.043602,531.195717 105.063942,525.505111 C110.070979,519.813482 118.769082,519.237361 124.459688,524.256677 C176.190886,569.760034 242.68737,594.819779 311.68072,594.819779 C468.04293,594.819779 595.263427,467.599282 595.263427,311.237072 C595.263427,154.875885 468.04293,27.654365 311.68072,27.654365 C155.30623,27.654365 28.08471,154.874862 28.08471,311.237072 C28.08471,318.834097 21.936686,324.982121 14.339661,324.982121 C6.755939,324.982121 0.594612,318.834097 0.594612,311.237072 C0.594612,139.707417 140.151065,0.165291 311.679696,0.165291 C483.209351,0.165291 622.751477,139.708441 622.751477,311.237072 C622.753525,482.767751 483.210375,622.309878 311.68072,622.309878 Z M201.709073,391.453023 C157.480756,391.453023 121.50745,355.466414 121.50745,311.238097 C121.50745,267.010803 157.480756,231.024194 201.709073,231.024194 C245.93739,231.024194 281.923999,267.010803 281.923999,311.238097 C281.922976,355.466414 245.936367,391.453023 201.709073,391.453023 Z M201.709073,258.513268 C172.649224,258.513268 148.997547,282.163921 148.997547,311.237073 C148.997547,340.310225 172.6482,363.961902 201.709073,363.961902 C230.783249,363.961902 254.433902,340.310226 254.433902,311.237073 C254.433902,282.16392 230.782226,258.513268 201.709073,258.513268 Z M421.640088,391.453023 C377.411771,391.453023 341.425162,355.466414 341.425162,311.238097 C341.425162,267.010803 377.411771,231.024194 421.640088,231.024194 C465.868405,231.024194 501.840688,267.010803 501.840688,311.238097 C501.840688,355.466414 465.868405,391.453023 421.640088,391.453023 Z M421.640088,258.513268 C392.566936,258.513268 368.915259,282.163921 368.915259,311.237073 C368.915259,340.310225 392.566935,363.961902 421.640088,363.961902 C450.699937,363.961902 474.351614,340.310226 474.351614,311.237073 C474.351614,282.16392 450.700961,258.513268 421.640088,258.513268 Z" id="Shape"></path>
        </g>
    </g>
</svg>
