<?xml version="1.0" encoding="UTF-8"?>
<svg width="1024px" height="1024px" viewBox="0 0 1024 1024" version="1.1" xmlns="http://www.w3.org/2000/svg" xmlns:xlink="http://www.w3.org/1999/xlink">
    <!-- Generator: Sketch 47.1 (45422) - http://www.bohemiancoding.com/sketch -->
    <title>dianyuan</title>
    <desc>Created with Sketch.</desc>
    <defs></defs>
    <g id="Page-1" stroke="none" stroke-width="1" fill="none" fill-rule="evenodd">
        <g id="dianyuan" fill-rule="nonzero" fill="#33384A">
            <path d="M954.181818,0 L69.818182,0 C30.254545,0 0,30.254545 0,69.818182 L0,954.181818 C0,993.745454 30.254545,1024 69.818182,1024 L954.181818,1024 C993.745454,1024 1024,993.745455 1024,954.181818 L1024,69.818182 C1024,30.254546 993.745455,0 954.181818,0 Z M977.454545,954.181818 C977.454545,968.145454 968.145454,977.454545 954.181818,977.454545 L535.272727,977.454545 L535.272727,800.581818 L621.381818,800.581818 C630.690909,800.581818 637.672727,795.927273 642.327273,788.945455 L695.854545,698.181818 C700.50909,691.2 700.50909,681.890909 695.854545,672.581818 L586.472727,509.672727 C581.818182,502.690909 574.836363,500.363636 567.854545,500.363636 L458.472727,500.363636 C451.490909,500.363636 444.509091,505.018181 439.854545,509.672727 L330.472727,672.581818 C325.818182,679.563636 325.818182,688.872727 330.472727,698.181818 L384,788.945455 C388.654545,795.927273 395.636364,800.581819 404.945455,800.581818 L488.727273,800.581818 L488.727273,977.454545 L69.818182,977.454545 C55.854546,977.454545 46.545455,968.145454 46.545455,954.181818 L46.545455,69.818182 C46.545455,55.854546 55.854546,46.545455 69.818182,46.545455 L954.181818,46.545455 C968.145454,46.545455 977.454545,55.854546 977.454545,69.818182 L977.454545,954.181818 Z M416.581818,754.036364 L377.018182,686.545455 L470.109091,546.909091 L553.890909,546.909091 L646.981818,686.545455 L607.418182,754.036364 L416.581818,754.036364 L416.581818,754.036364 Z" id="Shape"></path>
            <path d="M616.727273,232.727273 C602.763637,232.727273 593.454546,242.036364 593.454545,256 L593.454545,349.090909 C593.454545,363.054545 602.763636,372.363636 616.727273,372.363636 C630.69091,372.363636 640,363.054545 640,349.090909 L640,256 C640,242.036364 630.690909,232.727273 616.727273,232.727273 Z M407.272727,232.727273 C393.309091,232.727273 384,242.036364 384,256 L384,349.090909 C384,363.054545 393.309091,372.363636 407.272727,372.363636 C421.236363,372.363636 430.545454,363.054545 430.545455,349.090909 L430.545455,256 C430.545455,242.036364 421.236364,232.727273 407.272727,232.727273 L407.272727,232.727273 Z" id="Shape"></path>
        </g>
    </g>
</svg>