<?xml version="1.0" standalone="no"?><!DOCTYPE svg PUBLIC "-//W3C//DTD SVG 1.1//EN" "http://www.w3.org/Graphics/SVG/1.1/DTD/svg11.dtd"><svg class="icon" width="200px" height="200.00px" viewBox="0 0 1024 1024" version="1.1" xmlns="http://www.w3.org/2000/svg"><path fill="#333333" d="M701.85961 112.147005c22.956266 0 41.396545 18.440279 41.396546 41.396545v769.599412c0 22.956266-18.440279 41.396545-41.396546 41.396546h-337.570011c-22.956266 0-41.396545-18.440279-41.396545-41.396546V153.54355c0-22.956266 18.440279-41.396545 41.396545-41.396545h337.570011m0-11.289967h-337.570011c-28.977582 0-52.686512 23.708931-52.686512 52.686512v769.599412c0 28.977582 23.708931 52.686512 52.686512 52.686512h337.570011c28.977582 0 52.686512-23.708931 52.686513-52.686512V153.54355c0-28.977582-23.708931-52.686512-52.686513-52.686512zM735.729511 419.98677h-403.804483c-2.257993 0-3.763322-1.505329-3.763323-3.763323s1.505329-3.763322 3.763323-3.763322H735.729511c2.257993 0 3.763322 1.505329 3.763323 3.763322s-1.505329 3.763322-3.763323 3.763323zM721.805219 331.925028h-372.568909c-1.128997 0-1.881661-0.752664-1.881661-1.881662s0.752664-1.881661 1.881661-1.881661h372.568909c1.128997 0 1.881661 0.752664 1.881661 1.881661s-0.752664 1.881661-1.881661 1.881662zM608.905549 253.647924h-259.669239c-1.128997 0-1.881661-0.752664-1.881661-1.881662s0.752664-1.881661 1.881661-1.881661h259.669239c1.128997 0 1.881661 0.752664 1.881662 1.881661s-0.752664 1.881661-1.881662 1.881662zM721.805219 253.647924H636.00147c-1.128997 0-1.881661-0.752664-1.881661-1.881662s0.752664-1.881661 1.881661-1.881661h85.803749c1.128997 0 1.881661 0.752664 1.881661 1.881661s-0.752664 1.881661-1.881661 1.881662zM655.947078 170.854833h-306.710768c-1.128997 0-1.881661-0.752664-1.881661-1.881661s0.752664-1.881661 1.881661-1.881662h306.710768c1.128997 0 1.881661 0.752664 1.881661 1.881662s-0.752664 1.881661-1.881661 1.881661zM721.805219 170.854833h-44.030871c-1.128997 0-1.881661-0.752664-1.881661-1.881661s0.752664-1.881661 1.881661-1.881662h44.030871c1.128997 0 1.881661 0.752664 1.881661 1.881662s-0.752664 1.881661-1.881661 1.881661zM610.787211 499.769202c-1.128997 0-1.881661-0.752664-1.881662-1.881661v-15.053289c0-1.128997 0.752664-1.881661 1.881662-1.881661s1.881661 0.752664 1.881661 1.881661v15.053289c0 1.128997-0.752664 1.881661-1.881661 1.881661zM610.787211 499.769202c-0.376332 0-1.128997 0-1.505329-0.376332l-10.537303-10.537302c-0.752664-0.752664-0.752664-1.881661 0-2.634326s1.881661-0.752664 2.634326 0l10.537302 10.537303c0.752664 0.752664 0.752664 1.881661 0 2.634325 0 0.376332-0.376332 0.376332-1.128996 0.376332zM610.787211 499.769202h-15.05329c-1.128997 0-1.881661-0.752664-1.881661-1.881661s0.752664-1.881661 1.881661-1.881661h15.05329c1.128997 0 1.881661 0.752664 1.881661 1.881661s-0.752664 1.881661-1.881661 1.881661zM600.249908 510.306505c-0.376332 0-1.128997 0-1.505329-0.376332-0.752664-0.752664-0.752664-1.881661 0-2.634326l10.537303-10.537302c0.752664-0.752664 1.881661-0.752664 2.634325 0s0.752664 1.881661 0 2.634325l-10.537302 10.537303c0 0.376332-0.752664 0.376332-1.128997 0.376332zM610.787211 514.822492c-1.128997 0-1.881661-0.752664-1.881662-1.881661v-15.05329c0-1.128997 0.752664-1.881661 1.881662-1.881661s1.881661 0.752664 1.881661 1.881661v15.05329c0 1.128997-0.752664 1.881661-1.881661 1.881661zM621.700845 510.306505c-0.376332 0-1.128997 0-1.505329-0.376332l-10.537302-10.537303c-0.752664-0.752664-0.752664-1.881661 0-2.634325s1.881661-0.752664 2.634326 0l10.537302 10.537302c0.752664 0.752664 0.752664 1.881661 0 2.634326-0.376332 0.376332-0.752664 0.376332-1.128997 0.376332zM625.8405 499.769202h-15.053289c-1.128997 0-1.881661-0.752664-1.881662-1.881661s0.752664-1.881661 1.881662-1.881661h15.053289c1.128997 0 1.881661 0.752664 1.881661 1.881661s-0.752664 1.881661-1.881661 1.881661zM610.787211 499.769202c-0.376332 0-1.128997 0-1.505329-0.376332-0.752664-0.752664-0.752664-1.881661 0-2.634325l10.537302-10.537303c0.752664-0.752664 1.881661-0.752664 2.634326 0s0.752664 1.881661 0 2.634326l-10.537303 10.537302c0 0.376332-0.376332 0.376332-1.128996 0.376332zM540.036751 498.263874h-42.525542c-1.128997 0-1.881661-0.752664-1.881661-1.881662s0.752664-1.881661 1.881661-1.881661h42.525542c1.128997 0 1.881661 0.752664 1.881661 1.881661s-0.752664 1.881661-1.881661 1.881662zM561.864021 498.263874h-7.526645c-1.128997 0-1.881661-0.752664-1.881661-1.881662s0.752664-1.881661 1.881661-1.881661h7.526645c1.128997 0 1.881661 0.752664 1.881661 1.881661s-0.752664 1.881661-1.881661 1.881662z" /></svg>